<svg width="24" height="25" viewBox="0 0 24 25" fill="none" xmlns="http://www.w3.org/2000/svg">
<g id="bx:bx-doughnut-chart">
<path id="Vector" d="M12 2.5C6.486 2.5 2 6.986 2 12.5C2 18.014 6.486 22.5 12 22.5C17.514 22.5 22 18.014 22 12.5C22 6.986 17.514 2.5 12 2.5ZM19.931 11.5H16.899C16.7012 10.5403 16.2264 9.65964 15.5335 8.96686C14.8405 8.27408 13.9597 7.79957 13 7.602V4.569C14.7598 4.79335 16.3953 5.59574 17.6498 6.8502C18.9043 8.10466 19.7066 9.74017 19.931 11.5ZM12 9.5C13.654 9.5 15 10.846 15 12.5C15 14.154 13.654 15.5 12 15.5C10.346 15.5 9 14.154 9 12.5C9 10.846 10.346 9.5 12 9.5ZM12 20.5C7.589 20.5 4 16.911 4 12.5C4 8.428 7.061 5.064 11 4.569V7.601C9.87158 7.83306 8.85764 8.447 8.12903 9.33936C7.40042 10.2317 7.00168 11.348 7 12.5C7 15.257 9.243 17.5 12 17.5C13.152 17.4985 14.2682 17.0998 15.1604 16.3711C16.0526 15.6424 16.6663 14.6284 16.898 13.5H19.93C19.436 17.439 16.072 20.5 12 20.5Z" fill="black"/>
</g>
</svg>
