<svg width="20" height="20" viewBox="0 0 20 20" fill="none" xmlns="http://www.w3.org/2000/svg">
<g id="Icon/Person/Solid">
<path id="Subtract" fill-rule="evenodd" clip-rule="evenodd" d="M6.5 5.5C6.5 3.567 8.067 2 10 2C11.933 2 13.5 3.567 13.5 5.5C13.5 7.433 11.933 9 10 9C8.067 9 6.5 7.433 6.5 5.5Z" fill="#8F8F8F"/>
<path id="Subtract_2" fill-rule="evenodd" clip-rule="evenodd" d="M3 15C3 14.0268 3.52312 13.0629 4.68472 12.3005C5.85854 11.5301 7.65272 11 10 11C12.3473 11 14.1415 11.5301 15.3153 12.3005C16.4769 13.0629 17 14.0268 17 15C17 15.4956 16.8681 15.884 16.6363 16.2073C16.3972 16.5407 16.0133 16.8576 15.4349 17.1322C14.2555 17.6924 12.4316 18 10 18C7.56838 18 5.74453 17.6924 4.56507 17.1322C3.98674 16.8576 3.60278 16.5407 3.36371 16.2073C3.1319 15.884 3 15.4956 3 15Z" fill="#8F8F8F"/>
</g>
</svg>
