<svg width="92" height="90" viewBox="0 0 92 90" fill="none" xmlns="http://www.w3.org/2000/svg">
<path id="Vector" d="M46 45C52.1 45 57.9501 42.6295 62.2635 38.4099C66.5768 34.1903 69 28.4674 69 22.5C69 16.5326 66.5768 10.8097 62.2635 6.5901C57.9501 2.37053 52.1 0 46 0C39.9 0 34.0499 2.37053 29.7365 6.5901C25.4232 10.8097 23 16.5326 23 22.5C23 28.4674 25.4232 34.1903 29.7365 38.4099C34.0499 42.6295 39.9 45 46 45ZM61.3333 22.5C61.3333 26.4782 59.7179 30.2936 56.8423 33.1066C53.9667 35.9196 50.0667 37.5 46 37.5C41.9333 37.5 38.0333 35.9196 35.1577 33.1066C32.2821 30.2936 30.6667 26.4782 30.6667 22.5C30.6667 18.5218 32.2821 14.7064 35.1577 11.8934C38.0333 9.08035 41.9333 7.5 46 7.5C50.0667 7.5 53.9667 9.08035 56.8423 11.8934C59.7179 14.7064 61.3333 18.5218 61.3333 22.5ZM92 82.5C92 90 84.3333 90 84.3333 90H7.66667C7.66667 90 0 90 0 82.5C0 75 7.66667 52.5 46 52.5C84.3333 52.5 92 75 92 82.5ZM84.3333 82.47C84.3257 80.625 83.1527 75.075 77.9547 69.99C72.956 65.1 63.549 60 46 60C28.4433 60 19.044 65.1 14.0453 69.99C8.84733 75.075 7.682 80.625 7.66667 82.47H84.3333Z" fill="white"/>
</svg>
